<svg width="116" height="20" viewBox="0 0 116 20" fill="none" xmlns="http://www.w3.org/2000/svg">
<path d="M5.65625 19V4.87891H0.5V1.55078H15.1953V4.87891H10.0391V19H5.65625Z" fill="#62D0DF"/>
<path d="M28.2537 19H24.1287V12.4727C24.1287 11.9414 24.1053 11.4141 24.0584 10.8906C24.0194 10.3594 23.9412 9.96875 23.8241 9.71875C23.6834 9.42188 23.4803 9.21094 23.2147 9.08594C22.9491 8.95312 22.5936 8.88672 22.1483 8.88672C21.8123 8.88672 21.4725 8.94922 21.1287 9.07422C20.785 9.19922 20.4178 9.39844 20.0272 9.67188V19H15.9256V0.765625H20.0272V7.29297C20.6991 6.72266 21.3514 6.27734 21.9842 5.95703C22.6248 5.63672 23.3319 5.47656 24.1053 5.47656C25.4491 5.47656 26.4764 5.90234 27.1873 6.75391C27.8983 7.59766 28.2537 8.82422 28.2537 10.4336V19Z" fill="#62D0DF"/>
<path d="M39.2966 9.71875H38.9567C38.8005 9.66406 38.5739 9.625 38.277 9.60156C37.9802 9.57031 37.652 9.55469 37.2927 9.55469C36.863 9.55469 36.4098 9.61719 35.9333 9.74219C35.4645 9.86719 35.0075 10.0156 34.5622 10.1875V19H30.4606V5.83984H34.5622V7.72656C34.7497 7.55469 35.0075 7.33984 35.3356 7.08203C35.6716 6.81641 35.9762 6.60547 36.2497 6.44922C36.5466 6.26953 36.8903 6.11719 37.2809 5.99219C37.6794 5.85938 38.0544 5.79297 38.4059 5.79297C38.5387 5.79297 38.6872 5.79688 38.8512 5.80469C39.0153 5.8125 39.1637 5.82422 39.2966 5.83984V9.71875Z" fill="#62D0DF"/>
<path d="M44.1284 19H40.0269V5.83984H44.1284V19ZM44.2456 3.96484H39.9097V0.765625H44.2456V3.96484Z" fill="#62D0DF"/>
<path d="M58.7455 5.83984L54.0228 19H49.5462L44.8587 5.83984H49.1712L51.8666 14.5469L54.5267 5.83984H58.7455Z" fill="#62D0DF"/>
<path d="M66.2258 19.3516C63.7414 19.3516 61.8352 18.7578 60.507 17.5703C59.1867 16.3828 58.5266 14.6914 58.5266 12.4961C58.5266 10.3477 59.1437 8.63281 60.3781 7.35156C61.6125 6.07031 63.3391 5.42969 65.5578 5.42969C67.5734 5.42969 69.0891 5.97266 70.1047 7.05859C71.1203 8.14453 71.6281 9.69922 71.6281 11.7227V13.1992H62.6398C62.6789 13.8086 62.8078 14.3203 63.0266 14.7344C63.2453 15.1406 63.5344 15.4648 63.8937 15.707C64.2453 15.9492 64.6555 16.125 65.1242 16.2344C65.593 16.3359 66.1047 16.3867 66.6594 16.3867C67.1359 16.3867 67.6047 16.3359 68.0656 16.2344C68.5266 16.125 68.9484 15.9844 69.3313 15.8125C69.6672 15.6641 69.9758 15.5039 70.257 15.332C70.5461 15.1602 70.7805 15.0078 70.9602 14.875H71.3938V18.2617C71.0578 18.3945 70.7492 18.5195 70.468 18.6367C70.1945 18.7461 69.8156 18.8594 69.3313 18.9766C68.8859 19.0938 68.425 19.1836 67.9484 19.2461C67.4797 19.3164 66.9055 19.3516 66.2258 19.3516ZM67.5852 10.7266C67.5617 9.85938 67.3586 9.19922 66.9758 8.74609C66.6008 8.29297 66.0227 8.06641 65.2414 8.06641C64.4445 8.06641 63.8195 8.30469 63.3664 8.78125C62.9211 9.25781 62.675 9.90625 62.6281 10.7266H67.5852Z" fill="#62D0DF"/>
<path d="M77.9366 19.2578C76.2647 19.2578 75.0459 18.9141 74.2803 18.2266C73.5225 17.5391 73.1436 16.4141 73.1436 14.8516V8.69922H71.5733V5.83984H73.1436V2.07812H77.2452V5.83984H81.1944V8.69922H77.2452V13.3633C77.2452 13.8242 77.2491 14.2266 77.2569 14.5703C77.2647 14.9141 77.3272 15.2227 77.4444 15.4961C77.5537 15.7695 77.7452 15.9883 78.0186 16.1523C78.2998 16.3086 78.7061 16.3867 79.2373 16.3867C79.4561 16.3867 79.7412 16.3398 80.0928 16.2461C80.4522 16.1523 80.7022 16.0664 80.8428 15.9883H81.1944V18.8828C80.7491 19 80.2764 19.0898 79.7764 19.1523C79.2764 19.2227 78.6631 19.2578 77.9366 19.2578Z" fill="#62D0DF"/>
<path d="M89.2958 15.5664V12.8242C88.6005 12.8945 88.038 12.957 87.6083 13.0117C87.1786 13.0586 86.7567 13.1562 86.3427 13.3047C85.9833 13.4297 85.702 13.6211 85.4989 13.8789C85.3036 14.1289 85.2059 14.4648 85.2059 14.8867C85.2059 15.5039 85.37 15.9297 85.6981 16.1641C86.0341 16.3906 86.5263 16.5039 87.1747 16.5039C87.5341 16.5039 87.9013 16.4219 88.2763 16.2578C88.6513 16.0938 88.9911 15.8633 89.2958 15.5664ZM89.2958 17.6055C89.0145 17.8398 88.7606 18.0508 88.5341 18.2383C88.3153 18.4258 88.0184 18.6133 87.6434 18.8008C87.2763 18.9805 86.9169 19.1172 86.5653 19.2109C86.2216 19.3047 85.7372 19.3516 85.1122 19.3516C83.9481 19.3516 82.9794 18.9609 82.2059 18.1797C81.4403 17.3984 81.0575 16.4141 81.0575 15.2266C81.0575 14.25 81.2528 13.4609 81.6434 12.8594C82.0341 12.2578 82.5966 11.7812 83.3309 11.4297C84.0731 11.0703 84.9598 10.8203 85.9911 10.6797C87.0223 10.5391 88.1317 10.4297 89.3192 10.3516V10.2812C89.3192 9.55469 89.0497 9.05469 88.5106 8.78125C87.9794 8.5 87.1786 8.35938 86.1083 8.35938C85.6239 8.35938 85.0575 8.44922 84.4091 8.62891C83.7606 8.80078 83.1278 9.02344 82.5106 9.29688H82.1591V6.12109C82.5653 6.00391 83.2216 5.86719 84.1278 5.71094C85.0341 5.54688 85.9481 5.46484 86.87 5.46484C89.1356 5.46484 90.7841 5.84375 91.8153 6.60156C92.8544 7.35156 93.3739 8.5 93.3739 10.0469V19H89.2958V17.6055Z" fill="#62D0DF"/>
<path d="M99.6706 19H95.5691V0.765625H99.6706V19Z" fill="#62D0DF"/>
<path d="M115.143 19H110.268L106.706 13.2695L106.073 14.125V19H101.971V0.765625H106.073V10.9844L109.963 5.83984H114.803L110.198 11.5117L115.143 19Z" fill="#62D0DF"/>
</svg>
